<svg width="31" height="23" viewBox="0 0 31 23" fill="none" xmlns="http://www.w3.org/2000/svg">
<path d="M10.6294 22.6621C11.872 22.6621 12.8794 21.9091 12.8794 20.9802C12.8794 20.0513 11.872 19.2983 10.6294 19.2983C9.38675 19.2983 8.37939 20.0513 8.37939 20.9802C8.37939 21.9091 9.38675 22.6621 10.6294 22.6621Z" fill="black"/>
<path d="M24.2993 22.6621C25.542 22.6621 26.5493 21.9091 26.5493 20.9802C26.5493 20.0513 25.542 19.2983 24.2993 19.2983C23.0567 19.2983 22.0493 20.0513 22.0493 20.9802C22.0493 21.9091 23.0567 22.6621 24.2993 22.6621Z" fill="black"/>
<path d="M30.3793 2.75619C30.2863 2.67044 30.169 2.60117 30.0358 2.55335C29.9027 2.50552 29.757 2.48034 29.6093 2.47961H8.78931L9.43931 3.97461H28.2993L25.6293 12.9446H10.6293L6.05931 2.12829C6.00988 2.01352 5.92404 1.90939 5.80911 1.82478C5.69419 1.74018 5.55359 1.67761 5.39931 1.64242L1.29931 0.700567C1.17324 0.671609 1.04077 0.661495 0.909474 0.670804C0.778176 0.680113 0.650617 0.708662 0.534079 0.754821C0.298721 0.848043 0.122544 1.00733 0.0443048 1.19765C-0.0339342 1.38797 -0.00782593 1.59373 0.116886 1.76966C0.241598 1.94559 0.454697 2.07728 0.709306 2.13576L4.29931 2.95801L8.88931 13.7967L7.24931 14.7984L7.11931 14.8956C6.71365 15.245 6.48371 15.6893 6.46911 16.1518C6.45451 16.6144 6.65615 17.0662 7.03931 17.4296C7.31187 17.6774 7.65822 17.874 8.05065 18.0038C8.44308 18.1336 8.87071 18.1929 9.29931 18.1771H25.9893C26.2545 18.1771 26.5089 18.0983 26.6964 17.9581C26.884 17.818 26.9893 17.6278 26.9893 17.4296C26.9893 17.2313 26.884 17.0412 26.6964 16.901C26.5089 16.7608 26.2545 16.6821 25.9893 16.6821H9.13931C9.02416 16.6791 8.91197 16.6541 8.81357 16.6092C8.71518 16.5644 8.6339 16.5014 8.57761 16.4263C8.52131 16.3511 8.49189 16.2664 8.49219 16.1803C8.49249 16.0941 8.52249 16.0095 8.57931 15.9346L10.9893 14.4396H26.4293C26.6605 14.4438 26.8865 14.388 27.0688 14.2817C27.2511 14.1754 27.3785 14.0252 27.4293 13.8565L30.5993 3.39156C30.6297 3.28012 30.6257 3.16497 30.5876 3.05486C30.5495 2.94476 30.4783 2.84261 30.3793 2.75619V2.75619Z" fill="black"/>
</svg>
