<svg width="91" height="21" viewBox="0 0 91 21" fill="none" xmlns="http://www.w3.org/2000/svg">
<path d="M2.58256 7.35744H3.5913C4.84747 7.35744 5.73419 7.20348 6.25147 6.89556C6.77599 6.58122 7.03832 6.05774 7.03832 5.32257C7.03832 4.52069 6.79826 3.95875 6.31787 3.638C5.83762 3.31083 4.92877 3.14659 3.5913 3.14659H2.58256V7.35744ZM2.58256 13.8418H3.49142C4.41517 13.8418 5.10611 13.8084 5.56423 13.7417C6.02234 13.675 6.38441 13.5582 6.65043 13.3914C6.97561 13.1977 7.22673 12.9372 7.40407 12.6088C7.58142 12.2816 7.67023 11.9211 7.67023 11.5272C7.67023 11.0589 7.56298 10.6509 7.34874 10.3045C7.13437 9.95681 6.82777 9.68608 6.42882 9.49235C6.17756 9.37816 5.88926 9.29477 5.56423 9.24088C5.24643 9.18828 4.82151 9.16134 4.28947 9.16134H3.49142H2.58256V13.8418ZM0 15.8368V1.16178H4.08999C5.25749 1.16178 6.11839 1.21953 6.67256 1.33244C7.23425 1.44663 7.71081 1.63393 8.10239 1.89438C8.60491 2.22796 8.9928 2.66548 9.26633 3.20691C9.54711 3.74834 9.68742 4.3462 9.68742 5.00182C9.68742 5.78317 9.48794 6.43751 9.08899 6.96611C8.68989 7.48702 8.10976 7.8514 7.34874 8.05924C8.29463 8.19268 9.03721 8.58271 9.57662 9.23191C10.1234 9.87342 10.3968 10.6843 10.3968 11.6671C10.3968 12.2624 10.2823 12.8269 10.0532 13.3606C9.82419 13.8957 9.49901 14.3498 9.07778 14.7245C8.63442 15.1325 8.08394 15.4186 7.42635 15.5866C6.76861 15.7534 5.66397 15.8368 4.11213 15.8368H0ZM22.9993 11.4066H14.5977C14.6568 12.2957 14.9487 12.9898 15.4734 13.4915C15.9979 13.9854 16.6962 14.2331 17.5682 14.2331C18.3441 14.2331 18.9906 14.0855 19.5079 13.7917C20.0252 13.4979 20.4759 13.0232 20.8601 12.3689L22.8885 13.3914C22.2973 14.3473 21.5658 15.058 20.6939 15.5263C19.822 15.9934 18.7985 16.2281 17.6237 16.2281C15.9389 16.2281 14.5977 15.7637 13.6001 14.8348C12.6025 13.9059 12.1039 12.6665 12.1039 11.1154C12.1039 9.6258 12.6173 8.40308 13.6445 7.44724C14.679 6.48499 16.0054 6.00386 17.6237 6.00386C19.3158 6.00386 20.6348 6.44136 21.5806 7.31637C22.5265 8.19266 22.9993 9.41795 22.9993 10.9961V11.4066ZM20.5055 9.9427C20.4094 9.26142 20.1213 8.74309 19.6409 8.38898C19.1606 8.02846 18.503 7.84754 17.6679 7.84754C16.8773 7.84754 16.2418 8.02202 15.7616 8.36972C15.2812 8.71741 14.9451 9.2409 14.7528 9.9427H20.5055ZM33.0637 11.0551C33.0637 10.0736 32.8088 9.3076 32.2989 8.75975C31.7965 8.21191 31.0908 7.93863 30.1818 7.93863C29.273 7.93863 28.5562 8.22218 28.0315 8.79055C27.5143 9.35122 27.2556 10.1339 27.2556 11.1359C27.2556 12.1443 27.5069 12.9231 28.0094 13.471C28.5119 14.0188 29.2213 14.2934 30.1375 14.2934C31.0021 14.2934 31.7041 13.9957 32.2435 13.4017C32.7903 12.8064 33.0637 12.025 33.0637 11.0551ZM35.4024 15.2454C35.4024 17.1032 34.9924 18.4093 34.1721 19.1649C33.3519 19.9271 31.9702 20.3068 30.0267 20.3068C28.5783 20.3068 27.4219 20.0297 26.5573 19.4754C25.6929 18.9276 25.2532 18.1963 25.2384 17.2802L27.821 17.27C27.8579 17.678 28.0686 17.9884 28.4528 18.2027C28.837 18.4157 29.3764 18.5234 30.071 18.5234C31.0982 18.5234 31.8371 18.3195 32.2878 17.9115C32.7386 17.5035 32.9677 16.8222 32.9751 15.8663L32.9972 14.6039C32.5686 15.1517 32.0662 15.5597 31.4898 15.8266C30.9208 16.0947 30.2668 16.2281 29.5279 16.2281C28.0426 16.2281 26.8714 15.7701 26.0142 14.854C25.1645 13.9328 24.7396 12.6729 24.7396 11.0756C24.7396 9.55908 25.1756 8.33636 26.0476 7.40746C26.9195 6.47215 28.0574 6.00386 29.4614 6.00386C30.3186 6.00386 31.0501 6.16808 31.656 6.49524C32.2694 6.816 32.7164 7.28044 32.9972 7.88859V6.33487H35.4024V15.2454ZM38.517 2.22541C38.517 1.85719 38.6648 1.54027 38.9604 1.27212C39.2634 1.00525 39.6218 0.871826 40.0355 0.871826C40.4641 0.871826 40.8188 1.0027 41.0996 1.26315C41.3879 1.51719 41.5319 1.83794 41.5319 2.22541C41.5319 2.61288 41.3879 2.94004 41.0996 3.20691C40.8114 3.46736 40.4567 3.59822 40.0355 3.59822C39.6218 3.59822 39.2634 3.46478 38.9604 3.19663C38.6648 2.92335 38.517 2.59877 38.517 2.22541ZM38.8385 15.8368V6.33487H41.2437V15.8368H38.8385ZM44.6909 15.8368V6.33487H46.952V7.88859C47.4323 7.23297 47.9976 6.75571 48.6479 6.45548C49.2982 6.15398 50.0888 6.00386 51.0198 6.00386C51.8031 6.00386 52.4682 6.11677 53.015 6.34515C53.5692 6.56454 54.0015 6.89555 54.3119 7.33691C54.4966 7.59736 54.6296 7.90143 54.7109 8.24912C54.7922 8.59682 54.8327 9.20496 54.8327 10.0736V15.8368H52.4054V10.955C52.4054 9.70535 52.2354 8.87779 51.8955 8.4698C51.5629 8.05538 50.9682 7.84754 50.111 7.84754C49.5494 7.84754 49.0469 7.94121 48.6035 8.12853C48.1676 8.31585 47.8239 8.58013 47.5728 8.92013C47.3955 9.14722 47.2698 9.44232 47.1958 9.80284C47.1293 10.157 47.0961 10.7253 47.0961 11.5067V15.8368H44.6909ZM58.0362 15.8368V6.33487H60.2972V7.88859C60.7775 7.23297 61.3428 6.75571 61.9931 6.45548C62.6433 6.15398 63.434 6.00386 64.3651 6.00386C65.1484 6.00386 65.8134 6.11677 66.3601 6.34515C66.9145 6.56454 67.3466 6.89555 67.657 7.33691C67.8418 7.59736 67.9748 7.90143 68.056 8.24912C68.1373 8.59682 68.178 9.20496 68.178 10.0736V15.8368H65.7505V10.955C65.7505 9.70535 65.5807 8.87779 65.2407 8.4698C64.9082 8.05538 64.3133 7.84754 63.4562 7.84754C62.8945 7.84754 62.3922 7.94121 61.9488 8.12853C61.5128 8.31585 61.1692 8.58013 60.9179 8.92013C60.7406 9.14722 60.615 9.44232 60.5411 9.80284C60.4746 10.157 60.4414 10.7253 60.4414 11.5067V15.8368H58.0362ZM81.501 11.4066H73.0992C73.1584 12.2957 73.4502 12.9898 73.9749 13.4915C74.4996 13.9854 75.1979 14.2331 76.0698 14.2331C76.8458 14.2331 77.4923 14.0855 78.0096 13.7917C78.5268 13.4979 78.9776 13.0232 79.3618 12.3689L81.3902 13.3914C80.799 14.3473 80.0675 15.058 79.1955 15.5263C78.3235 15.9934 77.3002 16.2281 76.1253 16.2281C74.4404 16.2281 73.0992 15.7637 72.1017 14.8348C71.1042 13.9059 70.6054 12.6665 70.6054 11.1154C70.6054 9.6258 71.1189 8.40308 72.1461 7.44724C73.1805 6.48499 74.5069 6.00386 76.1253 6.00386C77.8175 6.00386 79.1363 6.44136 80.0822 7.31637C81.0281 8.19266 81.501 9.41795 81.501 10.9961V11.4066ZM79.0071 9.9427C78.911 9.26142 78.6229 8.74309 78.1425 8.38898C77.6623 8.02846 77.0045 7.84754 76.1696 7.84754C75.3789 7.84754 74.7434 8.02202 74.263 8.36972C73.7828 8.71741 73.4466 9.2409 73.2545 9.9427H79.0071ZM86.4224 7.84754C86.681 7.22015 87.0208 6.75571 87.442 6.45548C87.8706 6.15398 88.399 6.00386 89.0271 6.00386C89.367 6.00386 89.6996 6.04106 90.0246 6.11419C90.3572 6.18733 90.6823 6.29382 91 6.43495L90.1356 8.27862C89.9286 8.14519 89.7033 8.04897 89.4594 7.98867C89.2229 7.92195 88.9568 7.88859 88.6613 7.88859C87.8633 7.88859 87.2905 8.17855 86.9433 8.75975C86.596 9.33454 86.4224 10.3045 86.4224 11.6671V15.8368H84.017V6.31435H86.4224V7.84754Z" fill="black" fill-opacity="0.5"/>
</svg>
