<svg width="55" height="15" viewBox="0 0 55 15" fill="none" xmlns="http://www.w3.org/2000/svg">
<path d="M0.968994 14.5145V1.69026H10.543V3.45973H3.758V6.65704H10.543V8.48782H3.758V14.5145H0.968994ZM13.145 2.61879C13.145 2.2976 13.301 2.02021 13.613 1.78662C13.934 1.55303 14.312 1.43623 14.75 1.43623C15.203 1.43623 15.578 1.5501 15.875 1.77786C16.18 1.99977 16.332 2.28008 16.332 2.61879C16.332 2.9575 16.18 3.24365 15.875 3.47725C15.57 3.705 15.195 3.81888 14.75 3.81888C14.312 3.81888 13.934 3.70208 13.613 3.46849C13.301 3.22905 13.145 2.94582 13.145 2.61879ZM13.484 14.5145V6.21029H16.027V14.5145H13.484ZM19.789 14.5145V0.93692H22.332V14.5145H19.789ZM26.574 14.5145V7.87465H24.629V6.21029H26.574V3.06554H29.117V6.21029H31.062V7.87465H29.117V14.5145H26.574ZM43.965 10.6427H35.082C35.145 11.4194 35.453 12.0268 36.008 12.4647C36.562 12.8969 37.301 13.113 38.223 13.113C39.043 13.113 39.727 12.9845 40.273 12.7276C40.82 12.4706 41.297 12.0559 41.703 11.4836L43.848 12.3771C43.223 13.2122 42.449 13.8342 41.527 14.243C40.605 14.6518 39.523 14.8561 38.281 14.8561C36.5 14.8561 35.082 14.4503 34.027 13.6385C32.973 12.8268 32.445 11.7436 32.445 10.3887C32.445 9.08642 32.988 8.01772 34.074 7.18262C35.168 6.34169 36.57 5.92122 38.281 5.92122C40.07 5.92122 41.465 6.30372 42.465 7.06874C43.465 7.83376 43.965 8.90538 43.965 10.2835V10.6427ZM41.328 9.36382C41.227 8.76814 40.922 8.31553 40.414 8.00606C39.906 7.69068 39.211 7.53301 38.328 7.53301C37.492 7.53301 36.82 7.68485 36.312 7.98849C35.805 8.2922 35.449 8.75065 35.246 9.36382H41.328ZM49.168 7.53301C49.441 6.98407 49.801 6.5782 50.246 6.31541C50.699 6.05262 51.258 5.92122 51.922 5.92122C52.281 5.92122 52.633 5.95334 52.977 6.01757C53.328 6.08181 53.672 6.17525 54.008 6.29788L53.094 7.90971C52.875 7.79287 52.637 7.70821 52.379 7.65565C52.129 7.59725 51.848 7.56805 51.535 7.56805C50.691 7.56805 50.086 7.8221 49.719 8.33018C49.352 8.83235 49.168 9.67911 49.168 10.8705V14.5145H46.625V6.19277H49.168V7.53301Z" fill="black"/>
</svg>
