<svg width="101" height="17" viewBox="0 0 101 17" fill="none" xmlns="http://www.w3.org/2000/svg">
<path d="M5.66633 9.94349H10.2172L8.54405 6.67996C8.44739 6.47239 8.34702 6.23483 8.2428 5.96724C8.13872 5.69341 8.03463 5.39082 7.93055 5.05946C7.84132 5.37206 7.74466 5.66464 7.64058 5.93847C7.54393 6.20481 7.44356 6.45239 7.33933 6.67996L5.66633 9.94349ZM13.0057 15.5603L11.1541 11.8778H4.68478L2.78848 15.5603H0L7.90828 0.69182L15.8053 15.5603H13.0057ZM24.7397 10.9C24.7397 9.94349 24.4831 9.197 23.9701 8.66308C23.4644 8.12916 22.7543 7.86283 21.8397 7.86283C20.9251 7.86283 20.2038 8.13917 19.6758 8.69309C19.1553 9.23952 18.895 10.0023 18.895 10.9788C18.895 11.9616 19.1479 12.7206 19.6534 13.2545C20.1591 13.7885 20.873 14.056 21.795 14.056C22.6725 14.056 23.3826 13.7697 23.9254 13.1958C24.4683 12.6168 24.7397 11.8516 24.7397 10.9ZM24.6728 0.41925H27.0933V15.5603H24.6728V14.3586C24.2415 14.8926 23.7358 15.2902 23.1559 15.5503C22.5832 15.8116 21.9252 15.9416 21.1816 15.9416C19.687 15.9416 18.5084 15.4952 17.6458 14.6025C16.7905 13.7047 16.3631 12.4768 16.3631 10.9201C16.3631 9.44209 16.8017 8.25045 17.6792 7.34517C18.5566 6.43363 19.7018 5.97724 21.1147 5.97724C21.9772 5.97724 22.7134 6.13729 23.3232 6.45614C23.9403 6.76874 24.3902 7.22138 24.6728 7.81406V0.41925ZM34.1538 16.1167L28.6102 6.29984H31.2536L33.5625 10.9588C33.6369 11.1026 33.7262 11.3177 33.8302 11.604C33.9343 11.8904 34.0423 12.233 34.1538 12.6293C34.2281 12.3493 34.3137 12.0729 34.4103 11.7991C34.5144 11.519 34.637 11.2389 34.7784 10.9588L37.0762 6.29984H39.7084L34.1538 16.1167ZM51.186 15.5603H48.7656V14.3586C48.3343 14.8926 47.8286 15.2902 47.2487 15.5503C46.676 15.8116 46.018 15.9416 45.2744 15.9416C43.7797 15.9416 42.6011 15.4952 41.7385 14.6025C40.8833 13.7047 40.4559 12.4768 40.4559 10.9201C40.4559 9.44209 40.8944 8.25045 41.7719 7.34517C42.6494 6.43363 43.7946 5.97724 45.2074 5.97724C46.0699 5.97724 46.8062 6.13729 47.416 6.45614C48.033 6.76874 48.4829 7.22138 48.7656 7.81406V6.29984H51.186V15.5603ZM48.8324 10.9C48.8324 9.94349 48.5759 9.197 48.0629 8.66308C47.5572 8.12916 46.847 7.86283 45.9324 7.86283C45.0178 7.86283 44.2966 8.13917 43.7686 8.69309C43.248 9.23952 42.9878 10.0023 42.9878 10.9788C42.9878 11.9616 43.2406 12.7206 43.7462 13.2545C44.2519 13.7885 44.9657 14.056 45.8878 14.056C46.7578 14.056 47.4642 13.766 48.0071 13.187C48.5573 12.6068 48.8324 11.8453 48.8324 10.9ZM54.5322 15.5603V6.29984H56.8077V7.81406C57.2909 7.17511 57.8599 6.70998 58.5142 6.41739C59.1685 6.12354 59.9642 5.97724 60.9012 5.97724C61.6893 5.97724 62.3586 6.08729 62.9089 6.30986C63.4665 6.52367 63.9016 6.84627 64.214 7.2764C64.3998 7.53023 64.5336 7.82658 64.6154 8.16543C64.6972 8.50429 64.7382 9.09697 64.7382 9.94349V15.5603H62.2954V10.8025C62.2954 9.58464 62.1243 8.77812 61.7823 8.3805C61.4478 7.97662 60.8491 7.77405 59.9865 7.77405C59.4214 7.77405 58.9157 7.86534 58.4695 8.0479C58.0308 8.23046 57.6851 8.48803 57.4323 8.81938C57.2538 9.0407 57.1273 9.3283 57.0531 9.67966C56.9861 10.0248 56.9526 10.5787 56.9526 11.3402V15.5603H54.5322ZM75.8587 8.93693C75.4869 8.57932 75.0519 8.30547 74.5538 8.11666C74.0629 7.92786 73.5313 7.83284 72.9587 7.83284C71.9698 7.83284 71.1778 8.11292 70.5829 8.6731C69.9879 9.23328 69.6905 9.976 69.6905 10.9C69.6905 11.8641 69.9879 12.6231 70.5829 13.177C71.1852 13.7234 72.0143 13.9973 73.0702 13.9973C73.6578 13.9973 74.1819 13.9022 74.643 13.7134C75.104 13.5184 75.5092 13.2258 75.8587 12.8344V15.2764C75.4126 15.499 74.933 15.664 74.4199 15.7753C73.9142 15.8854 73.3751 15.9416 72.8025 15.9416C71.1443 15.9416 69.7909 15.479 68.7424 14.5537C67.7014 13.6297 67.1809 12.4305 67.1809 10.9588C67.1809 9.46835 67.72 8.26672 68.7982 7.35518C69.8839 6.43614 71.3004 5.97724 73.048 5.97724C73.5982 5.97724 74.1039 6.02601 74.5649 6.12354C75.0259 6.21482 75.4573 6.35861 75.8587 6.55367V8.93693ZM88.5186 11.2427H80.0638C80.1233 12.1092 80.417 12.7856 80.945 13.2745C81.4729 13.7559 82.1757 13.9973 83.0531 13.9973C83.834 13.9973 84.4846 13.8535 85.0051 13.5671C85.5257 13.2808 85.9793 12.8181 86.3659 12.1804L88.4071 13.177C87.8122 14.1085 87.076 14.8013 86.1985 15.2577C85.3211 15.7128 84.2913 15.9416 83.109 15.9416C81.4134 15.9416 80.0638 15.489 79.06 14.5837C78.0561 13.6784 77.5541 12.4705 77.5541 10.9588C77.5541 9.50712 78.071 8.31548 79.1046 7.38394C80.1456 6.44614 81.4804 5.97724 83.109 5.97724C84.8118 5.97724 86.139 6.40362 87.0909 7.25639C88.0427 8.11041 88.5186 9.30455 88.5186 10.8425V11.2427ZM86.009 9.81596C85.9123 9.152 85.6223 8.64684 85.1389 8.30174C84.6556 7.95038 83.9937 7.77405 83.1535 7.77405C82.3578 7.77405 81.7184 7.9441 81.2349 8.28296C80.7517 8.62182 80.4133 9.132 80.22 9.81596H86.009ZM98.6466 10.9C98.6466 9.94349 98.39 9.197 97.8769 8.66308C97.3712 8.12916 96.661 7.86283 95.7464 7.86283C94.8318 7.86283 94.1105 8.13917 93.5826 8.69309C93.062 9.23952 92.8018 10.0023 92.8018 10.9788C92.8018 11.9616 93.0546 12.7206 93.5603 13.2545C94.0659 13.7885 94.7797 14.056 95.7019 14.056C96.5792 14.056 97.2894 13.7697 97.8322 13.1958C98.3751 12.6168 98.6466 11.8516 98.6466 10.9ZM98.5796 0.41925H101V15.5603H98.5796V14.3586C98.1483 14.8926 97.6426 15.2902 97.0626 15.5503C96.49 15.8116 95.8319 15.9416 95.0884 15.9416C93.5937 15.9416 92.4151 15.4952 91.5525 14.6025C90.6974 13.7047 90.2698 12.4768 90.2698 10.9201C90.2698 9.44209 90.7086 8.25045 91.5859 7.34517C92.4634 6.43363 93.6086 5.97724 95.0214 5.97724C95.8841 5.97724 96.6202 6.13729 97.23 6.45614C97.8472 6.76874 98.297 7.22138 98.5796 7.81406V0.41925Z" fill="black" fill-opacity="0.5"/>
</svg>
