<svg width="109" height="12" viewBox="0 0 109 12" fill="none" xmlns="http://www.w3.org/2000/svg">
<path d="M7.27223 3.56603L3.44094 7.32056H7.21056V4.60104C7.21056 4.45853 7.21398 4.29957 7.22082 4.12326C7.23449 3.94695 7.25172 3.76152 7.27223 3.56603ZM7.21056 10.6247V8.50538H0L8.75131 0.0690918H9.43944V7.32056H11.2677V8.50538H9.43944V10.6247H7.21056ZM21.4673 3.5377C21.4673 2.91469 21.2208 2.41224 20.7278 2.03222C20.2348 1.65129 19.5877 1.46128 18.7865 1.46128C17.8894 1.46128 17.1806 1.64673 16.6603 2.01761C16.1467 2.3885 15.89 2.8955 15.89 3.5377C15.89 4.19452 16.1433 4.71064 16.65 5.08701C17.1567 5.4579 17.8552 5.64335 18.7454 5.64335C19.5465 5.64335 20.2005 5.44786 20.7072 5.05779C21.214 4.66315 21.4673 4.15615 21.4673 3.5377ZM20.0909 6.69207C19.7759 6.80169 19.4541 6.88299 19.1254 6.93506C18.8036 6.98713 18.4749 7.01362 18.1393 7.01362C16.7904 7.01362 15.681 6.69936 14.8115 6.07178C13.9418 5.44328 13.507 4.63666 13.507 3.65189C13.507 2.57669 13.9932 1.71068 14.9656 1.05386C15.9446 0.39796 17.2355 0.0690918 18.8379 0.0690918C20.3306 0.0690918 21.5323 0.390642 22.443 1.03284C23.3607 1.67048 23.8194 2.50999 23.8194 3.55231C23.8194 4.67045 22.7204 6.30017 20.5223 8.44054L20.2655 8.69813L17.6156 11.2816L15.7666 10.6247L20.0909 6.69207ZM34.1833 3.5377C34.1833 2.91469 33.9367 2.41224 33.4437 2.03222C32.9507 1.65129 32.3036 1.46128 31.5025 1.46128C30.6055 1.46128 29.8967 1.64673 29.3763 2.01761C28.8628 2.3885 28.606 2.8955 28.606 3.5377C28.606 4.19452 28.8593 4.71064 29.366 5.08701C29.8727 5.4579 30.5711 5.64335 31.4613 5.64335C32.2625 5.64335 32.9165 5.44786 33.4232 5.05779C33.9299 4.66315 34.1833 4.15615 34.1833 3.5377ZM32.807 6.69207C32.492 6.80169 32.1701 6.88299 31.8414 6.93506C31.5196 6.98713 31.1909 7.01362 30.8554 7.01362C29.5063 7.01362 28.3971 6.69936 27.5274 6.07178C26.6578 5.44328 26.2229 4.63666 26.2229 3.65189C26.2229 2.57669 26.7091 1.71068 27.6815 1.05386C28.6607 0.39796 29.9515 0.0690918 31.5538 0.0690918C33.0467 0.0690918 34.2483 0.390642 35.159 1.03284C36.0766 1.67048 36.5355 2.50999 36.5355 3.55231C36.5355 4.67045 35.4365 6.30017 33.2383 8.44054L32.9816 8.69813L30.3315 11.2816L28.4827 10.6247L32.807 6.69207ZM45.7284 6.54956H51.2236V7.97737H45.7284V6.54956ZM64.6483 10.6247V1.6184H61.536L62.4811 0.27645H66.8772V10.6247H64.6483ZM83.5682 5.59311C83.5682 7.25388 83.0854 8.55471 82.12 9.49746C81.1613 10.4347 79.8397 10.9034 78.1551 10.9034C76.4502 10.9034 75.1218 10.4293 74.1699 9.48285C73.2249 8.53097 72.7525 7.19633 72.7525 5.47892C72.7525 3.77613 73.2318 2.44787 74.1904 1.4969C75.1491 0.545022 76.481 0.0690918 78.186 0.0690918C79.9116 0.0690918 81.24 0.547759 82.1713 1.50421C83.1026 2.45518 83.5682 3.81815 83.5682 5.59311ZM78.1141 9.43992C79.1138 9.43992 79.8636 9.10923 80.3635 8.44784C80.8703 7.78189 81.1237 6.78706 81.1237 5.46521C81.1237 4.17989 80.8738 3.20243 80.3739 2.53191C79.8809 1.85591 79.1584 1.51792 78.2065 1.51792C77.2137 1.51792 76.4639 1.85317 75.9572 2.52461C75.4505 3.19513 75.197 4.18538 75.197 5.49353C75.197 6.76331 75.447 7.73895 75.9469 8.41952C76.4536 9.10009 77.1761 9.43992 78.1141 9.43992ZM96.2842 5.59311C96.2842 7.25388 95.8015 8.55471 94.836 9.49746C93.8773 10.4347 92.5558 10.9034 90.8712 10.9034C89.1661 10.9034 87.8377 10.4293 86.8859 9.48285C85.9409 8.53097 85.4685 7.19633 85.4685 5.47892C85.4685 3.77613 85.9477 2.44787 86.9064 1.4969C87.8652 0.545022 89.197 0.0690918 90.9021 0.0690918C92.6277 0.0690918 93.9561 0.547759 94.8873 1.50421C95.8185 2.45518 96.2842 3.81815 96.2842 5.59311ZM90.8302 9.43992C91.8299 9.43992 92.5797 9.10923 93.0795 8.44784C93.5862 7.78189 93.8396 6.78706 93.8396 5.46521C93.8396 4.17989 93.5897 3.20243 93.0898 2.53191C92.5968 1.85591 91.8743 1.51792 90.9226 1.51792C89.9297 1.51792 89.1799 1.85317 88.6731 2.52461C88.1664 3.19513 87.913 4.18538 87.913 5.49353C87.913 6.76331 88.1629 7.73895 88.6628 8.41952C89.1696 9.10009 89.892 9.43992 90.8302 9.43992ZM109 5.59311C109 7.25388 108.517 8.55471 107.552 9.49746C106.593 10.4347 105.271 10.9034 103.587 10.9034C101.882 10.9034 100.554 10.4293 99.602 9.48285C98.6569 8.53097 98.1844 7.19633 98.1844 5.47892C98.1844 3.77613 98.6638 2.44787 99.6225 1.4969C100.581 0.545022 101.914 0.0690918 103.617 0.0690918C105.344 0.0690918 106.672 0.547759 107.604 1.50421C108.535 2.45518 109 3.81815 109 5.59311ZM103.546 9.43992C104.546 9.43992 105.295 9.10923 105.796 8.44784C106.302 7.78189 106.556 6.78706 106.556 5.46521C106.556 4.17989 106.306 3.20243 105.807 2.53191C105.312 1.85591 104.59 1.51792 103.638 1.51792C102.646 1.51792 101.896 1.85317 101.389 2.52461C100.882 3.19513 100.629 4.18538 100.629 5.49353C100.629 6.76331 100.879 7.73895 101.378 8.41952C101.886 9.10009 102.608 9.43992 103.546 9.43992Z" fill="black" fill-opacity="0.5"/>
</svg>
