<svg width="49" height="12" viewBox="0 0 49 12" fill="none" xmlns="http://www.w3.org/2000/svg">
<path d="M2.1719 8.05886H3.7344C4.5938 8.05886 5.237 8.01603 5.6641 7.93037C6.0964 7.84478 6.4714 7.70066 6.7891 7.49824C7.2214 7.22181 7.5443 6.87923 7.7578 6.47042C7.9766 6.05773 8.0859 5.57888 8.0859 5.0338C8.0859 4.4888 7.9766 4.01182 7.7578 3.60309C7.5443 3.19039 7.2214 2.84587 6.7891 2.56945C6.4661 2.36695 6.0781 2.2229 5.625 2.13724C5.1771 2.05165 4.474 2.00882 3.5156 2.00882H2.8438H2.1719V8.05886ZM0.3125 9.31444V0.764904H2.8203C4.4505 0.764904 5.5964 0.827171 6.2578 0.951779C6.9245 1.0725 7.5078 1.27687 8.0078 1.56495C8.6693 1.94259 9.1693 2.42735 9.5078 3.01907C9.8516 3.61086 10.0234 4.2863 10.0234 5.04554C10.0234 5.8047 9.8516 6.4782 9.5078 7.06611C9.1693 7.65006 8.6693 8.13287 8.0078 8.51439C7.5078 8.80248 6.9375 9.00878 6.2969 9.13339C5.6615 9.25411 4.6693 9.31444 3.3203 9.31444H2.8203H0.3125ZM19.1484 6.73324H13.2266C13.2682 7.25104 13.474 7.65588 13.8438 7.94793C14.2135 8.23602 14.7057 8.38006 15.3203 8.38006C15.8672 8.38006 16.3229 8.2944 16.6875 8.12307C17.0521 7.95182 17.3698 7.67539 17.6406 7.29387L19.0703 7.88956C18.6536 8.44622 18.138 8.86085 17.5234 9.13339C16.9089 9.40593 16.1875 9.5422 15.3594 9.5422C14.1719 9.5422 13.2266 9.27161 12.5234 8.73049C11.8203 8.1893 11.4688 7.46706 11.4688 6.56386C11.4688 5.69571 11.8307 4.9832 12.5547 4.42646C13.2839 3.86583 14.2188 3.58552 15.3594 3.58552C16.5521 3.58552 17.4818 3.84057 18.1484 4.35059C18.8151 4.86061 19.1484 5.57499 19.1484 6.49382V6.73324ZM17.3906 5.88057C17.3229 5.4835 17.1198 5.18181 16.7812 4.97542C16.4427 4.76522 15.9792 4.66005 15.3906 4.66005C14.8333 4.66005 14.3854 4.76134 14.0469 4.96377C13.7083 5.16619 13.4714 5.47184 13.3359 5.88057H17.3906ZM20.0703 8.30995L21.4766 7.73766C21.5807 8.01409 21.7734 8.22436 22.0547 8.3684C22.3359 8.51244 22.6979 8.58443 23.1406 8.58443C23.5208 8.58443 23.8177 8.52022 24.0312 8.39173C24.25 8.25934 24.3594 8.08031 24.3594 7.85449C24.3594 7.55467 23.974 7.29776 23.2031 7.0836C22.9427 7.01356 22.7422 6.95518 22.6016 6.90838C21.8099 6.66313 21.2552 6.41399 20.9375 6.16088C20.625 5.90785 20.4688 5.60026 20.4688 5.23824C20.4688 4.74377 20.7266 4.34281 21.2422 4.03522C21.763 3.72762 22.4505 3.57386 23.3047 3.57386C23.8776 3.57386 24.3672 3.6537 24.7734 3.81329C25.1849 3.96907 25.4844 4.19287 25.6719 4.48491L24.4688 5.10392C24.3802 4.92871 24.224 4.79049 24 4.68928C23.7812 4.58418 23.526 4.53163 23.2344 4.53163C22.9115 4.53163 22.651 4.59001 22.4531 4.70677C22.2604 4.81972 22.1641 4.97154 22.1641 5.1623C22.1641 5.45038 22.6016 5.71321 23.4766 5.95069C23.7526 6.02469 23.9661 6.08502 24.1172 6.13173C24.7995 6.33416 25.2865 6.56386 25.5781 6.82085C25.875 7.07388 26.0234 7.3912 26.0234 7.77272C26.0234 8.32557 25.7552 8.75965 25.2188 9.07502C24.6823 9.3865 23.9427 9.5422 23 9.5422C22.276 9.5422 21.6745 9.44099 21.1953 9.23849C20.7161 9.03607 20.3411 8.72653 20.0703 8.30995ZM27.5859 1.38391C27.5859 1.16983 27.6901 0.984893 27.8984 0.829114C28.112 0.67341 28.3646 0.59552 28.6562 0.59552C28.9583 0.59552 29.2083 0.671468 29.4062 0.823285C29.6094 0.971216 29.7109 1.15809 29.7109 1.38391C29.7109 1.60973 29.6094 1.80049 29.4062 1.95619C29.2031 2.10808 28.9531 2.18396 28.6562 2.18396C28.3646 2.18396 28.112 2.10614 27.8984 1.95036C27.6901 1.79077 27.5859 1.60196 27.5859 1.38391ZM27.8125 9.31444V3.7783H29.5078V9.31444H27.8125ZM37.2578 6.5288C37.2578 5.95652 37.0781 5.51078 36.7188 5.19152C36.3646 4.87227 35.8672 4.71268 35.2266 4.71268C34.5859 4.71268 34.0807 4.8781 33.7109 5.20902C33.3464 5.53605 33.1641 5.99158 33.1641 6.57552C33.1641 7.16343 33.3411 7.61701 33.6953 7.9362C34.0495 8.25545 34.5495 8.41512 35.1953 8.41512C35.8047 8.41512 36.2995 8.24185 36.6797 7.89539C37.0651 7.54884 37.2578 7.09332 37.2578 6.5288ZM38.9062 8.96992C38.9062 10.0522 38.6172 10.8132 38.0391 11.2535C37.4609 11.6975 36.487 11.9187 35.1172 11.9187C34.0964 11.9187 33.2812 11.7573 32.6719 11.4343C32.0625 11.1152 31.7526 10.6891 31.7422 10.1554L33.5625 10.1494C33.5885 10.3871 33.737 10.568 34.0078 10.6928C34.2786 10.8169 34.6589 10.8797 35.1484 10.8797C35.8724 10.8797 36.3932 10.7609 36.7109 10.5231C37.0286 10.2854 37.1901 9.88867 37.1953 9.33193L37.2109 8.59617C36.9089 8.91535 36.5547 9.15291 36.1484 9.30861C35.7474 9.46432 35.2865 9.5422 34.7656 9.5422C33.7188 9.5422 32.8932 9.27549 32.2891 8.74215C31.6901 8.20485 31.3906 7.47103 31.3906 6.54054C31.3906 5.65677 31.6979 4.94426 32.3125 4.40314C32.9271 3.85806 33.7292 3.58552 34.7188 3.58552C35.3229 3.58552 35.8385 3.68091 36.2656 3.87174C36.6979 4.05862 37.013 4.32914 37.2109 4.68345V3.7783H38.9062V8.96992ZM41.25 9.31444V3.7783H42.8438V4.68345C43.1823 4.30193 43.5807 4.02356 44.0391 3.84834C44.4974 3.67313 45.0547 3.58552 45.7109 3.58552C46.263 3.58552 46.7318 3.65175 47.1172 3.78413C47.5078 3.91255 47.8125 4.10526 48.0312 4.36225C48.1615 4.51407 48.2552 4.69122 48.3125 4.89365C48.3698 5.09614 48.3984 5.45038 48.3984 5.95652V9.31444H46.6875V6.47042C46.6875 5.74243 46.5677 5.25962 46.3281 5.02214C46.0938 4.78077 45.6745 4.66005 45.0703 4.66005C44.6745 4.66005 44.3203 4.71462 44.0078 4.82361C43.7005 4.93259 43.4583 5.08643 43.2812 5.28496C43.1562 5.41734 43.0677 5.5886 43.0156 5.79887C42.9688 6.00518 42.9453 6.3361 42.9453 6.79163V9.31444H41.25Z" fill="black"/>
</svg>
