<svg width="38" height="11" viewBox="0 0 38 11" fill="none" xmlns="http://www.w3.org/2000/svg">
<path d="M2.56836 4.9055H3.10449C4.26465 4.9055 5.03809 4.81132 5.4248 4.62295C5.81152 4.43458 6.00488 4.10195 6.00488 3.6243C6.00488 3.11151 5.79688 2.75046 5.38086 2.54041C4.9707 2.32962 4.21191 2.22497 3.10449 2.22497H2.56836V4.9055ZM2.43652 6.18673V10.5028H0.476562V0.884708H3.64062C4.57812 0.884708 5.2666 0.924317 5.70605 1.0028C6.15137 1.07755 6.53809 1.20239 6.86621 1.37731C7.27051 1.60081 7.58691 1.90281 7.81543 2.28403C8.04395 2.66077 8.1582 3.07637 8.1582 3.53234C8.1582 3.98757 8.04395 4.40842 7.81543 4.79338C7.58691 5.17909 7.27051 5.48109 6.86621 5.7001C6.53809 5.87577 6.15137 6.00058 5.70605 6.07458C5.2666 6.14933 4.57812 6.18673 3.64062 6.18673H3.22754H2.43652ZM11.4893 5.26654C11.6943 4.85467 11.9639 4.55045 12.2979 4.35311C12.6377 4.15652 13.0566 4.05783 13.5547 4.05783C13.8242 4.05783 14.0879 4.08177 14.3457 4.13035C14.6094 4.17819 14.8672 4.24846 15.1191 4.3404L14.4336 5.54909C14.2695 5.46163 14.0908 5.39811 13.8975 5.3585C13.71 5.31514 13.499 5.29271 13.2646 5.29271C12.6318 5.29271 12.1777 5.48333 11.9023 5.86456C11.627 6.24129 11.4893 6.87591 11.4893 7.76991V10.5028H9.582V4.26116H11.4893V5.26654ZM16.042 1.58063C16.042 1.33993 16.1592 1.13214 16.3936 0.956474C16.6338 0.781559 16.918 0.694092 17.2461 0.694092C17.5859 0.694092 17.8672 0.77932 18.0898 0.950497C18.3184 1.11644 18.4326 1.32723 18.4326 1.58063C18.4326 1.83478 18.3184 2.04931 18.0898 2.22497C17.8613 2.3954 17.5801 2.48138 17.2461 2.48138C16.918 2.48138 16.6338 2.39316 16.3936 2.21824C16.1592 2.03884 16.042 1.82656 16.042 1.58063ZM16.2969 10.5028V4.27462H18.2041V10.5028H16.2969ZM27.1602 6.04842C26.8672 5.80772 26.5244 5.62386 26.1318 5.49678C25.7451 5.36971 25.3262 5.30617 24.875 5.30617C24.0957 5.30617 23.4717 5.49452 23.0029 5.87126C22.5342 6.248 22.2998 6.74735 22.2998 7.36927C22.2998 8.01735 22.5342 8.52714 23.0029 8.8994C23.4775 9.26791 24.1309 9.45179 24.9629 9.45179C25.4258 9.45179 25.8389 9.38824 26.2021 9.26117C26.5654 9.12961 26.8848 8.93228 27.1602 8.66991V10.3122C26.8086 10.4609 26.4307 10.573 26.0264 10.647C25.6279 10.7218 25.2031 10.7592 24.752 10.7592C23.4453 10.7592 22.3789 10.4482 21.5527 9.82629C20.7324 9.20437 20.3223 8.39855 20.3223 7.40812C20.3223 6.40572 20.7471 5.59769 21.5967 4.984C22.4521 4.36656 23.5684 4.05783 24.9453 4.05783C25.3789 4.05783 25.7773 4.09074 26.1406 4.15652C26.5039 4.21781 26.8438 4.31423 27.1602 4.44504V6.04842ZM37.1357 7.59873H30.4736C30.5205 8.18178 30.752 8.63701 31.168 8.96516C31.584 9.28958 32.1377 9.45179 32.8291 9.45179C33.4443 9.45179 33.957 9.35536 34.3672 9.16251C34.7773 8.96965 35.1348 8.65871 35.4395 8.22964L37.0479 8.8994C36.5791 9.5258 35.999 9.99223 35.3076 10.2995C34.6162 10.6059 33.8047 10.7592 32.873 10.7592C31.5371 10.7592 30.4736 10.4549 29.6826 9.84572C28.8916 9.23726 28.4961 8.42472 28.4961 7.40812C28.4961 6.43189 28.9033 5.62984 29.7178 5.00418C30.5381 4.3733 31.5898 4.05783 32.873 4.05783C34.2148 4.05783 35.2607 4.34487 36.0107 4.91821C36.7607 5.49228 37.1357 6.29586 37.1357 7.32965V7.59873ZM35.1582 6.6397C35.082 6.1927 34.8535 5.85333 34.4727 5.62161C34.0918 5.38465 33.5703 5.26654 32.9082 5.26654C32.2812 5.26654 31.7773 5.38016 31.3965 5.60815C31.0156 5.83614 30.749 6.17999 30.5967 6.6397H35.1582Z" fill="black"/>
</svg>
