<svg width="41" height="14" viewBox="0 0 41 14" fill="none" xmlns="http://www.w3.org/2000/svg">
<path d="M5.63379 2.37586V10.667H3.54199V2.37586H0.123047V1.04875H9.03516V2.37586H5.63379ZM15.2139 7.57263C15.2139 6.99444 14.9648 6.5061 14.4668 6.10753C13.9688 5.70456 13.3594 5.50311 12.6387 5.50311C11.9238 5.50311 11.3145 5.70456 10.8105 6.10753C10.3125 6.5061 10.0635 6.99444 10.0635 7.57263C10.0635 8.15075 10.3125 8.64126 10.8105 9.04424C11.3145 9.4428 11.9238 9.64209 12.6387 9.64209C13.3535 9.64209 13.96 9.4428 14.458 9.04424C14.9619 8.64126 15.2139 8.15075 15.2139 7.57263ZM8.05078 7.55948C8.05078 7.10395 8.16504 6.67473 8.39355 6.27176C8.62793 5.86445 8.96191 5.5031 9.39551 5.18773C9.82324 4.87677 10.3154 4.6381 10.8721 4.47163C11.4287 4.30524 12.0117 4.22196 12.6211 4.22196C13.248 4.22196 13.8369 4.30524 14.3877 4.47163C14.9443 4.6381 15.4424 4.88335 15.8818 5.20747C16.3213 5.52717 16.6553 5.88852 16.8838 6.29149C17.1123 6.6944 17.2266 7.11711 17.2266 7.55948C17.2266 8.01934 17.1123 8.4508 16.8838 8.8537C16.6611 9.25668 16.333 9.61361 15.8994 9.92457C15.4424 10.2531 14.9355 10.5005 14.3789 10.667C13.8223 10.8378 13.2363 10.9232 12.6211 10.9232C12.0176 10.9232 11.4375 10.8378 10.8809 10.667C10.3242 10.5005 9.8291 10.2574 9.39551 9.93772C8.95605 9.61361 8.62207 9.2501 8.39355 8.84712C8.16504 8.44422 8.05078 8.01493 8.05078 7.55948ZM21.0938 7.53316C21.0938 8.17699 21.3076 8.69164 21.7354 9.07705C22.1689 9.46254 22.7373 9.65524 23.4404 9.65524C24.1611 9.65524 24.7178 9.47562 25.1104 9.11652C25.5088 8.75735 25.708 8.2471 25.708 7.58571C25.708 6.92874 25.5 6.41633 25.084 6.04841C24.6738 5.67608 24.1084 5.48995 23.3877 5.48995C22.667 5.48995 22.1045 5.66957 21.7002 6.02867C21.2959 6.38785 21.0938 6.88934 21.0938 7.53316ZM19.248 13.5971V4.43881H21.1553V5.45713C21.3779 5.0629 21.7324 4.75852 22.2188 4.54391C22.7109 4.32931 23.2969 4.22196 23.9766 4.22196C25.084 4.22196 25.9805 4.52859 26.666 5.14176C27.3574 5.7506 27.7031 6.55207 27.7031 7.54632C27.7031 8.59312 27.3633 9.41873 26.6836 10.0232C26.0098 10.6232 25.084 10.9232 23.9062 10.9232C23.3203 10.9232 22.7988 10.8356 22.3418 10.6604C21.8906 10.4852 21.4951 10.218 21.1553 9.85886V13.5971H19.248ZM29.5576 1.7452C29.5576 1.50428 29.6748 1.29625 29.9092 1.12104C30.1494 0.945823 30.4336 0.858215 30.7617 0.858215C31.1016 0.858215 31.3828 0.943655 31.6055 1.11446C31.834 1.28093 31.9482 1.49112 31.9482 1.7452C31.9482 1.9992 31.834 2.21381 31.6055 2.38902C31.377 2.55982 31.0957 2.64526 30.7617 2.64526C30.4336 2.64526 30.1494 2.55766 29.9092 2.38244C29.6748 2.20289 29.5576 1.99045 29.5576 1.7452ZM29.8125 10.667V4.43881H31.7197V10.667H29.8125ZM40.6758 6.21263C40.3828 5.97179 40.04 5.78783 39.6475 5.66075C39.2607 5.53375 38.8418 5.47029 38.3906 5.47029C37.6113 5.47029 36.9873 5.65858 36.5186 6.03525C36.0498 6.41192 35.8154 6.91124 35.8154 7.53316C35.8154 8.1814 36.0498 8.69164 36.5186 9.06397C36.9932 9.43189 37.6465 9.61585 38.4785 9.61585C38.9414 9.61585 39.3545 9.55231 39.7178 9.42531C40.0811 9.2939 40.4004 9.09679 40.6758 8.83404V10.4764C40.3242 10.6253 39.9463 10.7371 39.542 10.8116C39.1436 10.886 38.7188 10.9232 38.2676 10.9232C36.9609 10.9232 35.8945 10.6123 35.0684 9.99027C34.248 9.36835 33.8379 8.56247 33.8379 7.57263C33.8379 6.56964 34.2627 5.76151 35.1123 5.14834C35.9678 4.53076 37.084 4.22196 38.4609 4.22196C38.8945 4.22196 39.293 4.25486 39.6562 4.32056C40.0195 4.38186 40.3594 4.47821 40.6758 4.60962V6.21263Z" fill="black"/>
</svg>
