<svg width="109" height="12" viewBox="0 0 109 12" fill="none" xmlns="http://www.w3.org/2000/svg">
<path d="M7.27223 3.87092L3.44094 7.62547H7.21056V4.90593C7.21056 4.76342 7.21398 4.60446 7.22082 4.42815C7.23449 4.25184 7.25172 4.06641 7.27223 3.87092ZM7.21056 10.9297V8.8103H0L8.75131 0.373962H9.43944V7.62547H11.2677V8.8103H9.43944V10.9297H7.21056ZM21.4673 3.84259C21.4673 3.21957 21.2208 2.71713 20.7278 2.3371C20.2348 1.95617 19.5877 1.76615 18.7865 1.76615C17.8894 1.76615 17.1806 1.95161 16.6603 2.3225C16.1467 2.69338 15.89 3.20039 15.89 3.84259C15.89 4.49941 16.1433 5.01554 16.65 5.39191C17.1567 5.7628 17.8552 5.94825 18.7454 5.94825C19.5465 5.94825 20.2005 5.75276 20.7072 5.36269C21.214 4.96805 21.4673 4.46105 21.4673 3.84259ZM20.0909 6.99698C19.7759 7.1066 19.4541 7.1879 19.1254 7.23997C18.8036 7.29204 18.4749 7.31853 18.1393 7.31853C16.7904 7.31853 15.681 7.00427 14.8115 6.37668C13.9418 5.74818 13.507 4.94156 13.507 3.95678C13.507 2.88157 13.9932 2.01556 14.9656 1.35874C15.9446 0.702832 17.2355 0.373962 18.8379 0.373962C20.3306 0.373962 21.5323 0.695515 22.443 1.33772C23.3607 1.97536 23.8194 2.81488 23.8194 3.8572C23.8194 4.97535 22.7204 6.60508 20.5223 8.74545L20.2655 9.00305L17.6156 11.5865L15.7666 10.9297L20.0909 6.99698ZM34.1833 3.84259C34.1833 3.21957 33.9367 2.71713 33.4437 2.3371C32.9507 1.95617 32.3036 1.76615 31.5025 1.76615C30.6055 1.76615 29.8967 1.95161 29.3763 2.3225C28.8628 2.69338 28.606 3.20039 28.606 3.84259C28.606 4.49941 28.8593 5.01554 29.366 5.39191C29.8727 5.7628 30.5711 5.94825 31.4613 5.94825C32.2625 5.94825 32.9165 5.75276 33.4232 5.36269C33.9299 4.96805 34.1833 4.46105 34.1833 3.84259ZM32.807 6.99698C32.492 7.1066 32.1701 7.1879 31.8414 7.23997C31.5196 7.29204 31.1909 7.31853 30.8554 7.31853C29.5063 7.31853 28.3971 7.00427 27.5274 6.37668C26.6578 5.74818 26.2229 4.94156 26.2229 3.95678C26.2229 2.88157 26.7091 2.01556 27.6815 1.35874C28.6607 0.702832 29.9515 0.373962 31.5538 0.373962C33.0467 0.373962 34.2483 0.695515 35.159 1.33772C36.0766 1.97536 36.5355 2.81488 36.5355 3.8572C36.5355 4.97535 35.4365 6.60508 33.2383 8.74545L32.9816 9.00305L30.3315 11.5865L28.4827 10.9297L32.807 6.99698ZM45.7284 6.85446H51.2236V8.28228H45.7284V6.85446ZM64.6483 10.9297V1.92328H61.536L62.4811 0.581322H66.8772V10.9297H64.6483ZM83.5682 5.89801C83.5682 7.55879 83.0854 8.85963 82.12 9.80238C81.1613 10.7397 79.8397 11.2083 78.1551 11.2083C76.4502 11.2083 75.1218 10.7342 74.1699 9.78777C73.2249 8.83589 72.7525 7.50124 72.7525 5.78382C72.7525 4.08102 73.2318 2.75276 74.1904 1.80178C75.1491 0.849895 76.481 0.373962 78.186 0.373962C79.9116 0.373962 81.24 0.852632 82.1713 1.80909C83.1026 2.76006 83.5682 4.12304 83.5682 5.89801ZM78.1141 9.74484C79.1138 9.74484 79.8636 9.41415 80.3635 8.75276C80.8703 8.0868 81.1237 7.09197 81.1237 5.7701C81.1237 4.48478 80.8738 3.50732 80.3739 2.8368C79.8809 2.16079 79.1584 1.8228 78.2065 1.8228C77.2137 1.8228 76.4639 2.15805 75.9572 2.82949C75.4505 3.50001 75.197 4.49027 75.197 5.79843C75.197 7.06822 75.447 8.04386 75.9469 8.72443C76.4536 9.40501 77.1761 9.74484 78.1141 9.74484ZM96.2842 5.89801C96.2842 7.55879 95.8015 8.85963 94.836 9.80238C93.8773 10.7397 92.5558 11.2083 90.8712 11.2083C89.1661 11.2083 87.8377 10.7342 86.8859 9.78777C85.9409 8.83589 85.4685 7.50124 85.4685 5.78382C85.4685 4.08102 85.9477 2.75276 86.9064 1.80178C87.8652 0.849895 89.197 0.373962 90.9021 0.373962C92.6277 0.373962 93.9561 0.852632 94.8873 1.80909C95.8185 2.76006 96.2842 4.12304 96.2842 5.89801ZM90.8302 9.74484C91.8299 9.74484 92.5797 9.41415 93.0795 8.75276C93.5862 8.0868 93.8396 7.09197 93.8396 5.7701C93.8396 4.48478 93.5897 3.50732 93.0898 2.8368C92.5968 2.16079 91.8743 1.8228 90.9226 1.8228C89.9297 1.8228 89.1799 2.15805 88.6731 2.82949C88.1664 3.50001 87.913 4.49027 87.913 5.79843C87.913 7.06822 88.1629 8.04386 88.6628 8.72443C89.1696 9.40501 89.892 9.74484 90.8302 9.74484ZM109 5.89801C109 7.55879 108.517 8.85963 107.552 9.80238C106.593 10.7397 105.271 11.2083 103.587 11.2083C101.882 11.2083 100.554 10.7342 99.602 9.78777C98.6569 8.83589 98.1844 7.50124 98.1844 5.78382C98.1844 4.08102 98.6638 2.75276 99.6225 1.80178C100.581 0.849895 101.914 0.373962 103.617 0.373962C105.344 0.373962 106.672 0.852632 107.604 1.80909C108.535 2.76006 109 4.12304 109 5.89801ZM103.546 9.74484C104.546 9.74484 105.295 9.41415 105.796 8.75276C106.302 8.0868 106.556 7.09197 106.556 5.7701C106.556 4.48478 106.306 3.50732 105.807 2.8368C105.312 2.16079 104.59 1.8228 103.638 1.8228C102.646 1.8228 101.896 2.15805 101.389 2.82949C100.882 3.50001 100.629 4.49027 100.629 5.79843C100.629 7.06822 100.879 8.04386 101.378 8.72443C101.886 9.40501 102.608 9.74484 103.546 9.74484Z" fill="black" fill-opacity="0.5"/>
</svg>
