<svg width="119" height="12" viewBox="0 0 119 12" fill="none" xmlns="http://www.w3.org/2000/svg">
<path d="M3.09797 11.1457V1.82495H0L0.940567 0.436154H5.31661V11.1457H3.09797ZM21.931 5.93841C21.931 7.65715 21.4505 9.00339 20.4893 9.97904C19.5352 10.949 18.2195 11.434 16.5428 11.434C14.8456 11.434 13.5232 10.9434 12.5759 9.96393C11.6352 8.97882 11.1648 7.59759 11.1648 5.82023C11.1648 4.058 11.642 2.68338 12.5963 1.69921C13.5505 0.714101 14.8763 0.221558 16.5734 0.221558C18.2911 0.221558 19.6136 0.716933 20.5405 1.70677C21.4675 2.69093 21.931 4.10149 21.931 5.93841ZM16.502 9.9195C17.4971 9.9195 18.2435 9.57726 18.741 8.89279C19.2454 8.20359 19.4976 7.17403 19.4976 5.80604C19.4976 4.47585 19.2488 3.46427 18.7513 2.77035C18.2605 2.07075 17.5414 1.72097 16.594 1.72097C15.6057 1.72097 14.8592 2.06792 14.3548 2.76279C13.8504 3.45671 13.5982 4.48153 13.5982 5.83535C13.5982 7.14946 13.847 8.15915 14.3446 8.86348C14.849 9.5678 15.5681 9.9195 16.502 9.9195ZM34.5887 5.93841C34.5887 7.65715 34.1081 9.00339 33.147 9.97904C32.1927 10.949 30.8772 11.434 29.2005 11.434C27.5032 11.434 26.1809 10.9434 25.2334 9.96393C24.2928 8.97882 23.8225 7.59759 23.8225 5.82023C23.8225 4.058 24.2996 2.68338 25.2538 1.69921C26.2081 0.714101 27.5338 0.221558 29.2311 0.221558C30.9488 0.221558 32.2711 0.716933 33.1982 1.70677C34.1251 2.69093 34.5887 4.10149 34.5887 5.93841ZM29.1595 9.9195C30.1546 9.9195 30.9011 9.57726 31.3987 8.89279C31.9031 8.20359 32.1553 7.17403 32.1553 5.80604C32.1553 4.47585 31.9065 3.46427 31.4089 2.77035C30.9182 2.07075 30.199 1.72097 29.2515 1.72097C28.2632 1.72097 27.5168 2.06792 27.0125 2.76279C26.5081 3.45671 26.2559 4.48153 26.2559 5.83535C26.2559 7.14946 26.5047 8.15915 27.0022 8.86348C27.5066 9.5678 28.2257 9.9195 29.1595 9.9195ZM47.2462 5.93841C47.2462 7.65715 46.7658 9.00339 45.8047 9.97904C44.8504 10.949 43.5348 11.434 41.8581 11.434C40.1609 11.434 38.8386 10.9434 37.8911 9.96393C36.9505 8.97882 36.4801 7.59759 36.4801 5.82023C36.4801 4.058 36.9573 2.68338 37.9115 1.69921C38.8658 0.714101 40.1915 0.221558 41.8888 0.221558C43.6064 0.221558 44.9288 0.716933 45.8557 1.70677C46.7828 2.69093 47.2462 4.10149 47.2462 5.93841ZM41.8172 9.9195C42.8123 9.9195 43.5587 9.57726 44.0562 8.89279C44.5607 8.20359 44.8129 7.17403 44.8129 5.80604C44.8129 4.47585 44.5641 3.46427 44.0664 2.77035C43.5757 2.07075 42.8567 1.72097 41.9092 1.72097C40.9208 1.72097 40.1745 2.06792 39.6701 2.76279C39.1657 3.45671 38.9135 4.48153 38.9135 5.83535C38.9135 7.14946 39.1623 8.15915 39.6599 8.86348C40.1643 9.5678 40.8834 9.9195 41.8172 9.9195ZM56.0187 6.92824H61.4887V8.40589H56.0187V6.92824ZM74.8518 11.1457V1.82495H71.7538L72.6944 0.436154H77.0704V11.1457H74.8518ZM84.391 8.56094C84.7386 9.02324 85.185 9.37777 85.7304 9.62452C86.2757 9.87032 86.8823 9.99324 87.5503 9.99324C88.5386 9.99324 89.3395 9.76729 89.953 9.3135C90.5664 8.85593 90.8732 8.25559 90.8732 7.51156C90.8732 6.79778 90.5494 6.21636 89.9019 5.76824C89.2611 5.32106 88.4194 5.09698 87.3765 5.09698C86.7493 5.09698 86.1666 5.17545 85.6282 5.33333C85.0964 5.48554 84.6261 5.71434 84.2171 6.01971L83.6139 5.92421L85.4748 0.436154H92.5499V1.86182H86.9369L86.0576 4.24708C86.4665 4.12418 86.8619 4.03342 87.2435 3.97386C87.6252 3.91524 88.007 3.88499 88.3886 3.88499C89.8133 3.88499 90.972 4.21494 91.8649 4.87483C92.7579 5.53472 93.2043 6.39408 93.2043 7.45293C93.2043 8.66399 92.6829 9.63115 91.64 10.3553C90.597 11.0738 89.1998 11.434 87.448 11.434C86.4119 11.434 85.5122 11.3055 84.7488 11.0493C83.9855 10.7883 83.3276 10.3875 82.7756 9.84575L84.391 8.56094ZM106.342 5.93841C106.342 7.65715 105.862 9.00339 104.901 9.97904C103.946 10.949 102.631 11.434 100.954 11.434C99.2569 11.434 97.9347 10.9434 96.9873 9.96393C96.0466 8.97882 95.5763 7.59759 95.5763 5.82023C95.5763 4.058 96.0534 2.68338 97.0077 1.69921C97.9619 0.714101 99.2883 0.221558 100.984 0.221558C102.703 0.221558 104.024 0.716933 104.952 1.70677C105.879 2.69093 106.342 4.10149 106.342 5.93841ZM100.914 9.9195C101.908 9.9195 102.654 9.57726 103.153 8.89279C103.657 8.20359 103.909 7.17403 103.909 5.80604C103.909 4.47585 103.661 3.46427 103.163 2.77035C102.671 2.07075 101.953 1.72097 101.005 1.72097C100.017 1.72097 99.2713 2.06792 98.7661 2.76279C98.2619 3.45671 98.0097 4.48153 98.0097 5.83535C98.0097 7.14946 98.2585 8.15915 98.7556 8.86348C99.2608 9.5678 99.9793 9.9195 100.914 9.9195ZM119 5.93841C119 7.65715 118.52 9.00339 117.559 9.97904C116.604 10.949 115.289 11.434 113.612 11.434C111.915 11.434 110.593 10.9434 109.645 9.96393C108.704 8.97882 108.233 7.59759 108.233 5.82023C108.233 4.058 108.711 2.68338 109.665 1.69921C110.619 0.714101 111.945 0.221558 113.642 0.221558C115.36 0.221558 116.682 0.716933 117.61 1.70677C118.537 2.69093 119 4.10149 119 5.93841ZM113.571 9.9195C114.566 9.9195 115.312 9.57726 115.811 8.89279C116.315 8.20359 116.567 7.17403 116.567 5.80604C116.567 4.47585 116.318 3.46427 115.82 2.77035C115.329 2.07075 114.611 1.72097 113.663 1.72097C112.675 1.72097 111.928 2.06792 111.424 2.76279C110.92 3.45671 110.667 4.48153 110.667 5.83535C110.667 7.14946 110.916 8.15915 111.413 8.86348C111.919 9.5678 112.637 9.9195 113.571 9.9195Z" fill="black" fill-opacity="0.5"/>
</svg>
