<svg width="119" height="12" viewBox="0 0 119 12" fill="none" xmlns="http://www.w3.org/2000/svg">
<path d="M3.09797 11.4506V2.12982H0L0.940567 0.741026H5.31661V11.4506H3.09797ZM21.931 6.24331C21.931 7.96206 21.4505 9.30831 20.4893 10.284C19.5352 11.254 18.2195 11.739 16.5428 11.739C14.8456 11.739 13.5232 11.2483 12.5759 10.2688C11.6352 9.28373 11.1648 7.9025 11.1648 6.12513C11.1648 4.36289 11.642 2.98826 12.5963 2.00409C13.5505 1.01897 14.8763 0.526428 16.5734 0.526428C18.2911 0.526428 19.6136 1.02181 20.5405 2.01165C21.4675 2.99582 21.931 4.40638 21.931 6.24331ZM16.502 10.2244C17.4971 10.2244 18.2435 9.88218 18.741 9.19771C19.2454 8.5085 19.4976 7.47894 19.4976 6.11094C19.4976 4.78075 19.2488 3.76916 18.7513 3.07523C18.2605 2.37563 17.5414 2.02584 16.594 2.02584C15.6057 2.02584 14.8592 2.3728 14.3548 3.06767C13.8504 3.7616 13.5982 4.78643 13.5982 6.14025C13.5982 7.45437 13.847 8.46406 14.3446 9.16839C14.849 9.87272 15.5681 10.2244 16.502 10.2244ZM34.5887 6.24331C34.5887 7.96206 34.1081 9.30831 33.147 10.284C32.1927 11.254 30.8772 11.739 29.2005 11.739C27.5032 11.739 26.1809 11.2483 25.2334 10.2688C24.2928 9.28373 23.8225 7.9025 23.8225 6.12513C23.8225 4.36289 24.2996 2.98826 25.2538 2.00409C26.2081 1.01897 27.5338 0.526428 29.2311 0.526428C30.9488 0.526428 32.2711 1.02181 33.1982 2.01165C34.1251 2.99582 34.5887 4.40638 34.5887 6.24331ZM29.1595 10.2244C30.1546 10.2244 30.9011 9.88218 31.3987 9.19771C31.9031 8.5085 32.1553 7.47894 32.1553 6.11094C32.1553 4.78075 31.9065 3.76916 31.4089 3.07523C30.9182 2.37563 30.199 2.02584 29.2515 2.02584C28.2632 2.02584 27.5168 2.3728 27.0125 3.06767C26.5081 3.7616 26.2559 4.78643 26.2559 6.14025C26.2559 7.45437 26.5047 8.46406 27.0022 9.16839C27.5066 9.87272 28.2257 10.2244 29.1595 10.2244ZM47.2462 6.24331C47.2462 7.96206 46.7658 9.30831 45.8047 10.284C44.8504 11.254 43.5348 11.739 41.8581 11.739C40.1609 11.739 38.8386 11.2483 37.8911 10.2688C36.9505 9.28373 36.4801 7.9025 36.4801 6.12513C36.4801 4.36289 36.9573 2.98826 37.9115 2.00409C38.8658 1.01897 40.1915 0.526428 41.8888 0.526428C43.6064 0.526428 44.9288 1.02181 45.8557 2.01165C46.7828 2.99582 47.2462 4.40638 47.2462 6.24331ZM41.8172 10.2244C42.8123 10.2244 43.5587 9.88218 44.0562 9.19771C44.5607 8.5085 44.8129 7.47894 44.8129 6.11094C44.8129 4.78075 44.5641 3.76916 44.0664 3.07523C43.5757 2.37563 42.8567 2.02584 41.9092 2.02584C40.9208 2.02584 40.1745 2.3728 39.6701 3.06767C39.1657 3.7616 38.9135 4.78643 38.9135 6.14025C38.9135 7.45437 39.1623 8.46406 39.6599 9.16839C40.1643 9.87272 40.8834 10.2244 41.8172 10.2244ZM56.0187 7.23315H61.4887V8.71081H56.0187V7.23315ZM74.8518 11.4506V2.12982H71.7538L72.6944 0.741026H77.0704V11.4506H74.8518ZM84.391 8.86586C84.7386 9.32816 85.185 9.68269 85.7304 9.92944C86.2757 10.1752 86.8823 10.2982 87.5503 10.2982C88.5386 10.2982 89.3395 10.0722 89.953 9.61842C90.5664 9.16084 90.8732 8.5605 90.8732 7.81647C90.8732 7.10268 90.5494 6.52126 89.9019 6.07314C89.2611 5.62596 88.4194 5.40188 87.3765 5.40188C86.7493 5.40188 86.1666 5.48035 85.6282 5.63823C85.0964 5.79044 84.6261 6.01924 84.2171 6.32461L83.6139 6.22911L85.4748 0.741026H92.5499V2.1667H86.9369L86.0576 4.55197C86.4665 4.42907 86.8619 4.33831 87.2435 4.27875C87.6252 4.22013 88.007 4.18988 88.3886 4.18988C89.8133 4.18988 90.972 4.51983 91.8649 5.17972C92.7579 5.83962 93.2043 6.69898 93.2043 7.75784C93.2043 8.96891 92.6829 9.93607 91.64 10.6603C90.597 11.3788 89.1998 11.739 87.448 11.739C86.4119 11.739 85.5122 11.6104 84.7488 11.3542C83.9855 11.0933 83.3276 10.6924 82.7756 10.1507L84.391 8.86586ZM106.342 6.24331C106.342 7.96206 105.862 9.30831 104.901 10.284C103.946 11.254 102.631 11.739 100.954 11.739C99.2569 11.739 97.9347 11.2483 96.9873 10.2688C96.0466 9.28373 95.5763 7.9025 95.5763 6.12513C95.5763 4.36289 96.0534 2.98826 97.0077 2.00409C97.9619 1.01897 99.2883 0.526428 100.984 0.526428C102.703 0.526428 104.024 1.02181 104.952 2.01165C105.879 2.99582 106.342 4.40638 106.342 6.24331ZM100.914 10.2244C101.908 10.2244 102.654 9.88218 103.153 9.19771C103.657 8.5085 103.909 7.47894 103.909 6.11094C103.909 4.78075 103.661 3.76916 103.163 3.07523C102.671 2.37563 101.953 2.02584 101.005 2.02584C100.017 2.02584 99.2713 2.3728 98.7661 3.06767C98.2619 3.7616 98.0097 4.78643 98.0097 6.14025C98.0097 7.45437 98.2585 8.46406 98.7556 9.16839C99.2608 9.87272 99.9793 10.2244 100.914 10.2244ZM119 6.24331C119 7.96206 118.52 9.30831 117.559 10.284C116.604 11.254 115.289 11.739 113.612 11.739C111.915 11.739 110.593 11.2483 109.645 10.2688C108.704 9.28373 108.233 7.9025 108.233 6.12513C108.233 4.36289 108.711 2.98826 109.665 2.00409C110.619 1.01897 111.945 0.526428 113.642 0.526428C115.36 0.526428 116.682 1.02181 117.61 2.01165C118.537 2.99582 119 4.40638 119 6.24331ZM113.571 10.2244C114.566 10.2244 115.312 9.88218 115.811 9.19771C116.315 8.5085 116.567 7.47894 116.567 6.11094C116.567 4.78075 116.318 3.76916 115.82 3.07523C115.329 2.37563 114.611 2.02584 113.663 2.02584C112.675 2.02584 111.928 2.3728 111.424 3.06767C110.92 3.7616 110.667 4.78643 110.667 6.14025C110.667 7.45437 110.916 8.46406 111.413 9.16839C111.919 9.87272 112.637 10.2244 113.571 10.2244Z" fill="black" fill-opacity="0.5"/>
</svg>
