<svg width="131" height="16" viewBox="0 0 131 16" fill="none" xmlns="http://www.w3.org/2000/svg">
<path d="M0 15.3261V0.862749H2.67132V15.3261H0ZM6.30811 15.3261V5.96121H8.59783V7.49252C9.08431 6.84636 9.6567 6.37598 10.3152 6.08008C10.9738 5.78293 11.7744 5.63497 12.7172 5.63497C13.5104 5.63497 14.1838 5.74626 14.7377 5.97134C15.2989 6.18757 15.7367 6.5138 16.0509 6.94879C16.2379 7.20548 16.3727 7.50517 16.455 7.84785C16.5374 8.19053 16.5784 8.7899 16.5784 9.64596V15.3261H14.1203V10.5147C14.1203 9.28307 13.9482 8.46745 13.604 8.06534C13.2672 7.6569 12.6649 7.45205 11.7969 7.45205C11.2282 7.45205 10.7193 7.54437 10.2703 7.72899C9.82882 7.91361 9.48085 8.17408 9.2264 8.50917C9.04681 8.73299 8.91966 9.02383 8.84481 9.37915C8.77742 9.72816 8.7438 10.2883 8.7438 11.0584V15.3261H6.30811ZM20.3948 15.3261V7.83774H18.5315V5.96121H20.3948V2.4143H22.8305V5.96121H24.6937V7.83774H22.8305V15.3261H20.3948ZM37.0519 10.9598H28.5437C28.6036 11.8361 28.8991 12.5202 29.4304 13.0146C29.9617 13.5014 30.6689 13.7455 31.5519 13.7455C32.3377 13.7455 32.9924 13.6001 33.5162 13.3105C34.04 13.0209 34.4965 12.553 34.8856 11.9082L36.9397 12.916C36.341 13.858 35.6002 14.5585 34.7172 15.0201C33.8342 15.4804 32.7978 15.7118 31.6081 15.7118C29.9018 15.7118 28.5437 15.254 27.5335 14.3385C26.5234 13.423 26.0182 12.2015 26.0182 10.6727C26.0182 9.20467 26.5383 7.99959 27.5785 7.05753C28.626 6.10916 29.9692 5.63497 31.6081 5.63497C33.3217 5.63497 34.6573 6.06616 35.6151 6.92855C36.573 7.7922 37.0519 8.99981 37.0519 10.5551V10.9598ZM34.5264 9.517C34.4291 8.84555 34.1373 8.33469 33.6508 7.98569C33.1645 7.63036 32.4984 7.45205 31.6529 7.45205C30.8522 7.45205 30.2087 7.62402 29.7222 7.9667C29.2359 8.30938 28.8954 8.82531 28.7009 9.517H34.5264ZM42.0356 7.45205C42.2975 6.83371 42.6416 6.37598 43.0682 6.08008C43.5022 5.78293 44.0372 5.63497 44.6733 5.63497C45.0175 5.63497 45.3543 5.67164 45.6835 5.74372C46.0202 5.81579 46.3495 5.92075 46.6712 6.05984L45.7958 7.87692C45.5862 7.74542 45.358 7.65058 45.1111 7.59115C44.8716 7.5254 44.6022 7.49252 44.3029 7.49252C43.4947 7.49252 42.9147 7.77829 42.5632 8.35111C42.2115 8.91761 42.0356 9.87358 42.0356 11.2165V15.3261H39.5998V5.94099H42.0356V7.45205ZM50.4988 15.3261H48.0631V5.96121H50.3528V7.49252C50.8393 6.84003 51.3893 6.36585 52.0029 6.06995C52.624 5.76647 53.3536 5.61475 54.1916 5.61475C55.0222 5.61475 55.7107 5.77028 56.2569 6.08008C56.8032 6.3823 57.2185 6.84637 57.5029 7.47229C58.0641 6.8274 58.659 6.35574 59.2876 6.05984C59.9236 5.76395 60.6457 5.61475 61.4539 5.61475C62.1573 5.61475 62.7709 5.7298 63.2946 5.96121C63.8185 6.18502 64.2263 6.5138 64.5181 6.94879C64.6529 7.15237 64.7502 7.39643 64.8099 7.67967C64.8773 7.96292 64.9109 8.36756 64.9109 8.89486V9.64596V15.3261H62.4753V10.5147C62.4753 9.25777 62.3219 8.43077 62.0151 8.03499C61.7158 7.63414 61.177 7.43309 60.3987 7.43309C59.4409 7.43309 58.7563 7.70242 58.3447 8.24237C57.9406 8.77599 57.7385 9.71425 57.7385 11.0584V15.3261H55.2804V10.5147C55.2804 9.35641 55.1195 8.55218 54.7978 8.10454C54.4834 7.65691 53.9372 7.43309 53.1591 7.43309C52.68 7.43309 52.2423 7.52792 51.8457 7.71886C51.4491 7.9098 51.1348 8.17408 50.9028 8.50917C50.7532 8.72667 50.6485 8.99349 50.5886 9.30962C50.5287 9.62574 50.4988 10.2087 50.4988 11.0584V15.3261ZM78.4253 10.9598H69.9171C69.977 11.8361 70.2725 12.5202 70.8038 13.0146C71.3351 13.5014 72.0423 13.7455 72.9253 13.7455C73.7109 13.7455 74.3658 13.6001 74.8896 13.3105C75.4133 13.0209 75.8698 12.553 76.259 11.9082L78.3131 12.916C77.7144 13.858 76.9736 14.5585 76.0906 15.0201C75.2076 15.4804 74.1713 15.7118 72.9814 15.7118C71.2752 15.7118 69.9171 15.254 68.9069 14.3385C67.8968 13.423 67.3916 12.2015 67.3916 10.6727C67.3916 9.20467 67.9117 7.99959 68.9517 7.05753C69.9994 6.10916 71.3426 5.63497 72.9814 5.63497C74.6949 5.63497 76.0307 6.06616 76.9885 6.92855C77.9464 7.7922 78.4253 8.99981 78.4253 10.5551V10.9598ZM75.8998 9.517C75.8025 8.84555 75.5106 8.33469 75.0242 7.98569C74.5379 7.63036 73.8718 7.45205 73.0263 7.45205C72.2256 7.45205 71.5821 7.62402 71.0956 7.9667C70.6093 8.30938 70.2688 8.82531 70.0743 9.517H75.8998ZM88.617 10.6133C88.617 9.64596 88.359 8.89105 87.8426 8.35111C87.3337 7.81117 86.6191 7.54183 85.6987 7.54183C84.7784 7.54183 84.0525 7.82129 83.5212 8.38146C82.9974 8.93405 82.7355 9.7054 82.7355 10.693C82.7355 11.6869 82.9899 12.4544 83.4987 12.9944C84.0075 13.5343 84.7259 13.8049 85.6537 13.8049C86.5368 13.8049 87.2514 13.5153 87.7976 12.9349C88.3439 12.3495 88.617 11.5756 88.617 10.6133ZM88.5498 0.0142822H90.9855V15.3261H88.5498V14.1109C88.1157 14.6509 87.6068 15.053 87.0232 15.316C86.447 15.5803 85.7848 15.7118 85.0364 15.7118C83.5324 15.7118 82.3464 15.2603 81.4783 14.3575C80.6177 13.4496 80.1874 12.2078 80.1874 10.6335C80.1874 9.1389 80.6289 7.93383 81.5119 7.01833C82.395 6.09651 83.5474 5.63497 84.9691 5.63497C85.8371 5.63497 86.578 5.79682 87.1915 6.11927C87.8126 6.4354 88.2653 6.89314 88.5498 7.49252V0.0142822ZM94.1395 1.91103C94.1395 1.54812 94.2892 1.23577 94.5885 0.971494C94.8952 0.708478 95.2582 0.576974 95.6773 0.576974C96.1113 0.576974 96.4705 0.705963 96.7548 0.962657C97.0466 1.21303 97.1926 1.52915 97.1926 1.91103C97.1926 2.29291 97.0466 2.61536 96.7548 2.87837C96.463 3.13507 96.1038 3.26404 95.6773 3.26404C95.2582 3.26404 94.8952 3.13252 94.5885 2.86824C94.2892 2.5989 94.1395 2.279 94.1395 1.91103ZM94.4651 15.3261V5.96121H96.9008V15.3261H94.4651ZM110.404 15.3261H107.968V14.1109C107.534 14.6509 107.025 15.053 106.442 15.316C105.865 15.5803 105.203 15.7118 104.455 15.7118C102.951 15.7118 101.765 15.2603 100.897 14.3575C100.036 13.4496 99.6058 12.2078 99.6058 10.6335C99.6058 9.1389 100.047 7.93383 100.93 7.01833C101.813 6.09651 102.966 5.63497 104.387 5.63497C105.256 5.63497 105.996 5.79682 106.61 6.11927C107.231 6.4354 107.684 6.89314 107.968 7.49252V5.96121H110.404V15.3261ZM108.035 10.6133C108.035 9.64596 107.777 8.89105 107.261 8.35111C106.752 7.81117 106.037 7.54183 105.117 7.54183C104.197 7.54183 103.471 7.82129 102.94 8.38146C102.416 8.93405 102.154 9.7054 102.154 10.693C102.154 11.6869 102.408 12.4544 102.917 12.9944C103.426 13.5343 104.144 13.8049 105.072 13.8049C105.948 13.8049 106.658 13.5115 107.205 12.9261C107.759 12.3394 108.035 11.5693 108.035 10.6133ZM114.344 15.3261V7.83774H112.481V5.96121H114.344V2.4143H116.779V5.96121H118.643V7.83774H116.779V15.3261H114.344ZM131 10.9598H122.493C122.552 11.8361 122.848 12.5202 123.38 13.0146C123.911 13.5014 124.618 13.7455 125.5 13.7455C126.286 13.7455 126.941 13.6001 127.464 13.3105C127.989 13.0209 128.445 12.553 128.835 11.9082L130.888 12.916C130.29 13.858 129.549 14.5585 128.665 15.0201C127.783 15.4804 126.746 15.7118 125.556 15.7118C123.851 15.7118 122.493 15.254 121.482 14.3385C120.472 13.423 119.967 12.2015 119.967 10.6727C119.967 9.20467 120.487 7.99959 121.528 7.05753C122.575 6.10916 123.918 5.63497 125.556 5.63497C127.27 5.63497 128.606 6.06616 129.563 6.92855C130.522 7.7922 131 8.99981 131 10.5551V10.9598ZM128.476 9.517C128.378 8.84555 128.086 8.33469 127.599 7.98569C127.114 7.63036 126.447 7.45205 125.602 7.45205C124.801 7.45205 124.157 7.62402 123.671 7.9667C123.184 8.30938 122.844 8.82531 122.65 9.517H128.476Z" fill="black" fill-opacity="0.5"/>
</svg>
