<svg width="137" height="18" viewBox="0 0 137 18" fill="none" xmlns="http://www.w3.org/2000/svg">
<path d="M5.66563 10.792H10.2159L8.54298 7.37307C8.44634 7.15562 8.34598 6.90674 8.24177 6.62641C8.1377 6.33954 8.03363 6.02253 7.92957 5.6754C7.84034 6.00289 7.7437 6.3094 7.63963 6.59627C7.54299 6.87529 7.44263 7.13466 7.33842 7.37307L5.66563 10.792ZM13.004 16.6763L11.1527 12.8185H4.68419L2.78813 16.6763H0L7.9073 1.09976L15.8033 16.6763H13.004ZM17.2533 16.6763V0.814209H19.6734V16.6763H17.2533ZM23.2534 16.6763V0.814209H25.6735V16.6763H23.2534ZM36.603 16.6763V8.91881H34.7518V6.97485H36.603V3.30047H39.0233V6.97485H40.8745V8.91881H39.0233V16.6763H36.603ZM42.9713 16.6763V0.814209H45.2464V8.56119C45.7297 7.89181 46.2985 7.40452 46.9527 7.09799C47.6071 6.79016 48.4026 6.63689 49.3394 6.63689C50.1275 6.63689 50.7966 6.75217 51.347 6.98534C51.9046 7.20934 52.3395 7.5473 52.6517 7.99792C52.8376 8.26384 52.9715 8.57429 53.0533 8.92929C53.1351 9.28428 53.1759 9.90519 53.1759 10.792V16.6763H50.7335V11.692C50.7335 10.4161 50.5625 9.57115 50.2205 9.15459C49.8859 8.73148 49.2874 8.51927 48.4249 8.51927C47.8599 8.51927 47.3543 8.61491 46.9082 8.80616C46.4695 8.99741 46.1237 9.26724 45.8709 9.61438C45.6925 9.84624 45.5661 10.1475 45.4917 10.5156C45.4248 10.8772 45.3914 11.4575 45.3914 12.2552V16.6763H42.9713ZM66.5814 12.1531H58.1278C58.1872 13.0608 58.481 13.7695 59.0089 14.2817C59.5366 14.786 60.2392 15.0389 61.1166 15.0389C61.8973 15.0389 62.5479 14.8882 63.0684 14.5882C63.5888 14.2883 64.0424 13.8036 64.4289 13.1355L66.4699 14.1795C65.875 15.1554 65.139 15.8811 64.2616 16.3593C63.3844 16.8361 62.3546 17.0758 61.1724 17.0758C59.4772 17.0758 58.1278 16.6016 57.1239 15.6532C56.1202 14.7048 55.6184 13.4394 55.6184 11.8557C55.6184 10.3349 56.1351 9.08648 57.1686 8.11057C58.2096 7.12812 59.5442 6.63689 61.1724 6.63689C62.8751 6.63689 64.2022 7.08357 65.1538 7.97695C66.1056 8.87164 66.5814 10.1227 66.5814 11.7339V12.1531ZM64.0721 10.6584C63.9754 9.96284 63.6855 9.43363 63.2021 9.07208C62.7189 8.70399 62.0572 8.51927 61.217 8.51927C60.4214 8.51927 59.782 8.69742 59.2988 9.05241C58.8154 9.40741 58.4772 9.94188 58.2838 10.6584H64.0721ZM85.9537 16.6763H83.5334V15.4174C83.1023 15.9768 82.5967 16.3933 82.0167 16.6658C81.4442 16.9396 80.7863 17.0758 80.0427 17.0758C78.5482 17.0758 77.3697 16.6082 76.5074 15.6729C75.6523 14.7323 75.2247 13.446 75.2247 11.8151C75.2247 10.2667 75.6634 9.01835 76.5408 8.06996C77.4181 7.11501 78.5632 6.63689 79.9757 6.63689C80.8382 6.63689 81.5743 6.80456 82.184 7.13859C82.8011 7.46608 83.2509 7.94027 83.5334 8.56119V6.97485H85.9537V16.6763ZM83.6004 11.7941C83.6004 10.792 83.3439 10.01 82.8308 9.45064C82.3253 8.89129 81.6153 8.61227 80.7008 8.61227C79.7861 8.61227 79.065 8.90177 78.537 9.48208C78.0167 10.0545 77.7565 10.8536 77.7565 11.8767C77.7565 12.9063 78.0091 13.7014 78.5148 14.2608C79.0204 14.8201 79.7342 15.1004 80.6561 15.1004C81.526 15.1004 82.2324 14.7965 82.7751 14.19C83.3253 13.5822 83.6004 12.7844 83.6004 11.7941ZM91.6415 11.7941C91.6415 12.7844 91.9165 13.5822 92.4667 14.19C93.0244 14.7965 93.7419 15.1004 94.6193 15.1004C95.5338 15.1004 96.2401 14.8201 96.7382 14.2608C97.2438 13.7014 97.4967 12.9063 97.4967 11.8767C97.4967 10.8536 97.2327 10.0545 96.7048 9.48208C96.1843 8.90177 95.4668 8.61227 94.5524 8.61227C93.6379 8.61227 92.9241 8.89129 92.411 9.45064C91.898 10.01 91.6415 10.792 91.6415 11.7941ZM91.7195 0.814209V8.56119C92.002 7.94682 92.4519 7.47263 93.069 7.13859C93.6935 6.80456 94.4372 6.63689 95.2995 6.63689C96.7048 6.63689 97.8424 7.11501 98.7122 8.06996C99.5896 9.01835 100.028 10.2667 100.028 11.8151C100.028 13.446 99.597 14.7323 98.7346 15.6729C97.8795 16.6082 96.7048 17.0758 95.2103 17.0758C94.4668 17.0758 93.8052 16.9396 93.2252 16.6658C92.6527 16.3933 92.1508 15.9768 91.7195 15.4174V16.6763H89.2994V0.814209H91.7195ZM110.902 11.8557C110.902 10.9558 110.586 10.1947 109.954 9.57378C109.322 8.94632 108.549 8.63192 107.634 8.63192C106.727 8.63192 105.954 8.94632 105.315 9.57378C104.683 10.1947 104.367 10.9558 104.367 11.8557C104.367 12.7569 104.683 13.5206 105.315 14.1481C105.954 14.769 106.727 15.0795 107.634 15.0795C108.542 15.0795 109.311 14.769 109.943 14.1481C110.582 13.5206 110.902 12.7569 110.902 11.8557ZM101.813 11.836C101.813 11.1261 101.958 10.458 102.248 9.82921C102.545 9.1952 102.969 8.63192 103.519 8.1407C104.062 7.65733 104.686 7.28531 105.393 7.02594C106.099 6.76657 106.839 6.63689 107.612 6.63689C108.408 6.63689 109.155 6.76657 109.854 7.02594C110.561 7.28531 111.191 7.6665 111.75 8.17214C112.308 8.66991 112.732 9.23319 113.022 9.86065C113.311 10.4881 113.456 11.147 113.456 11.836C113.456 12.5526 113.311 13.2246 113.022 13.852C112.739 14.4795 112.322 15.0349 111.772 15.5196C111.191 16.0318 110.549 16.4169 109.843 16.6763C109.136 16.9422 108.393 17.0758 107.612 17.0758C106.846 17.0758 106.11 16.9422 105.404 16.6763C104.698 16.4169 104.069 16.0383 103.519 15.5406C102.961 15.0349 102.538 14.469 102.248 13.8416C101.958 13.2141 101.813 12.5447 101.813 11.836ZM119.735 17.2592L114.192 6.97485H116.836L119.144 11.8557C119.219 12.0064 119.307 12.2316 119.411 12.5316C119.515 12.8316 119.624 13.1905 119.735 13.6058C119.81 13.3124 119.895 13.0229 119.991 12.736C120.095 12.4426 120.218 12.1491 120.359 11.8557L122.657 6.97485H125.288L119.735 17.2592ZM137 12.1531H128.546C128.605 13.0608 128.899 13.7695 129.427 14.2817C129.955 14.786 130.657 15.0389 131.534 15.0389C132.315 15.0389 132.966 14.8882 133.487 14.5882C134.006 14.2883 134.46 13.8036 134.847 13.1355L136.887 14.1795C136.293 15.1554 135.557 15.8811 134.68 16.3593C133.802 16.8361 132.773 17.0758 131.591 17.0758C129.895 17.0758 128.546 16.6016 127.543 15.6532C126.538 14.7048 126.036 13.4394 126.036 11.8557C126.036 10.3349 126.553 9.08648 127.587 8.11057C128.627 7.12812 129.962 6.63689 131.591 6.63689C133.293 6.63689 134.62 7.08357 135.572 7.97695C136.523 8.87164 137 10.1227 137 11.7339V12.1531ZM134.49 10.6584C134.393 9.96284 134.104 9.43363 133.62 9.07208C133.137 8.70399 132.475 8.51927 131.635 8.51927C130.839 8.51927 130.201 8.69742 129.717 9.05241C129.233 9.40741 128.894 9.94188 128.702 10.6584H134.49Z" fill="black" fill-opacity="0.5"/>
</svg>
