<svg width="40" height="11" viewBox="0 0 40 11" fill="none" xmlns="http://www.w3.org/2000/svg">
<path d="M0.476562 10.4369V0.818799H2.56836V9.03756H7.24414V10.4369H0.476562ZM16.8154 7.53284H10.1533C10.2002 8.11589 10.4316 8.57111 10.8477 8.89926C11.2637 9.22367 11.8174 9.38588 12.5088 9.38588C13.124 9.38588 13.6367 9.28946 14.0469 9.0966C14.457 8.90375 14.8145 8.59279 15.1191 8.16372L16.7275 8.83348C16.2588 9.45988 15.6787 9.92632 14.9873 10.2335C14.2959 10.54 13.4844 10.6933 12.5527 10.6933C11.2168 10.6933 10.1533 10.389 9.3623 9.77982C8.57129 9.17136 8.17578 8.35882 8.17578 7.34222C8.17578 6.36599 8.58301 5.56392 9.3975 4.93827C10.2178 4.30738 11.2695 3.99194 12.5527 3.99194C13.8945 3.99194 14.9404 4.27898 15.6904 4.85231C16.4404 5.42639 16.8154 6.22995 16.8154 7.26374V7.53284ZM14.8379 6.5738C14.7617 6.12679 14.5332 5.78743 14.1523 5.5557C13.7715 5.31875 13.25 5.20064 12.5879 5.20064C11.9609 5.20064 11.457 5.31426 11.0762 5.54224C10.6953 5.77023 10.4287 6.11408 10.2764 6.5738H14.8379ZM21.7373 10.8114L17.3691 4.20871H19.4521L21.2715 7.34222C21.3301 7.43865 21.4004 7.58367 21.4824 7.77578C21.5645 7.96863 21.6494 8.19886 21.7373 8.46572C21.7959 8.27735 21.8633 8.09122 21.9395 7.90733C22.0215 7.71896 22.1182 7.53059 22.2295 7.34222L24.04 4.20871H26.1143L21.7373 10.8114ZM35.3428 7.53284H28.6807C28.7275 8.11589 28.959 8.57111 29.375 8.89926C29.791 9.22367 30.3447 9.38588 31.0361 9.38588C31.6514 9.38588 32.1641 9.28946 32.5742 9.0966C32.9844 8.90375 33.3418 8.59279 33.6465 8.16372L35.2549 8.83348C34.7861 9.45988 34.2061 9.92632 33.5146 10.2335C32.8232 10.54 32.0117 10.6933 31.0801 10.6933C29.7441 10.6933 28.6807 10.389 27.8896 9.77982C27.0986 9.17136 26.7031 8.35882 26.7031 7.34222C26.7031 6.36599 27.1104 5.56392 27.9248 4.93827C28.7451 4.30738 29.7969 3.99194 31.0801 3.99194C32.4219 3.99194 33.4678 4.27898 34.2178 4.85231C34.9678 5.42639 35.3428 6.22995 35.3428 7.26374V7.53284ZM33.3652 6.5738C33.2891 6.12679 33.0605 5.78743 32.6797 5.5557C32.2988 5.31875 31.7773 5.20064 31.1152 5.20064C30.4883 5.20064 29.9844 5.31426 29.6035 5.54224C29.2227 5.77023 28.9561 6.11408 28.8037 6.5738H33.3652ZM37.4258 10.4369V0.253693H39.333V10.4369H37.4258Z" fill="black"/>
</svg>
